<?xml version="1.0" encoding="utf-8"?>
<!-- Svg Vector Icons : http://www.onlinewebfonts.com/icon -->
<!DOCTYPE svg PUBLIC "-//W3C//DTD SVG 1.1//EN" "http://www.w3.org/Graphics/SVG/1.1/DTD/svg11.dtd">
<svg version="1.1" xmlns="http://www.w3.org/2000/svg" xmlns:xlink="http://www.w3.org/1999/xlink" x="0px" y="0px" viewBox="0 0 1000 1000" enable-background="new 0 0 1000 1000" xml:space="preserve">
<metadata> Svg Vector Icons : http://www.onlinewebfonts.com/icon </metadata>
<g><g transform="translate(0.000000,511.000000) scale(0.100000,-0.100000)"><path d="M4801.5,5001c-450.9-38.1-743.1-175.7-859.5-406.5c-23.3-44.4-52.9-80.4-67.7-80.4c-12.7,0-103.7-33.9-199-72c-431.9-177.8-791.8-539.8-982.3-988.6c-196.9-461.5-213.8-880.7-67.7-1765.6c42.3-258.3,57.2-417.1,57.2-666.9c2.1-351.4-23.3-484.8-146.1-787.5l-52.9-129.1l52.9-88.9c122.8-211.7,474.2-463.6,834.1-601.2l114.3-42.3l156.7,50.8c459.4,154.5,662.6,353.5,696.5,681.7c14.8,129.1,12.7,131.2-57.2,190.5c-357.8,294.3-635.1,677.4-789.6,1090.3c-55,146.1-110.1,442.4-129.1,705c-23.3,290,63.5,470,410.7,846.8c194.8,211.7,323.9,421.3,414.9,677.4c21.2,59.3,42.3,110.1,44.5,112.2c2.1,4.2,59.3-44.4,127-110.1c124.9-124.9,338.7-241.3,516.5-283.7c52.9-12.7,228.6-42.3,391.6-67.7c514.4-76.2,611.8-150.3,872.2-664.7c148.2-292.1,279.5-459.4,421.3-533.5l76.2-40.2l-14.8-146.1c-52.9-544.1-372.6-1138.9-808.7-1503.1l-154.5-129.1l10.6-131.3c23.3-334.5,218-535.6,660.5-683.8l196.9-65.6l184.2,76.2c103.7,42.3,258.3,120.7,345.1,175.7c175.7,110.1,402.2,326,442.5,423.4c23.3,57.2,19,78.3-48.7,220.2c-40.2,86.8-95.3,241.3-120.6,345.1c-61.4,262.5-48.7,662.6,42.3,1164.3c194.8,1067,55,1748.6-482.7,2390.1C6395.6,4749.1,5597.5,5068.8,4801.5,5001z"/><path d="M3340.8-695.8c-57.2-21.2-304.8-112.2-550.4-201.1c-527.1-190.5-946.3-389.5-1124.1-535.6c-332.4-271-571.6-749.4-675.3-1344.3c-108-630.9,42.3-1005.6,514.4-1280.8c876.4-510.2,2415.5-791.7,3958.8-721.9c1170.7,52.9,2176.3,277.3,2891.8,645.7c241.3,124.9,340.8,194.8,450.9,313.3c186.3,201.1,249.8,417.1,232.9,776.9c-36,658.4-311.2,1295.6-696.5,1606.8c-158.8,129.1-459.4,285.8-789.6,410.7c-290,112.2-1005.6,374.7-1016.2,374.7c-4.2,0-42.3-63.5-84.7-141.8c-237.1-436.1-812.9-1018.3-1206.7-1225.7c-190.5-97.4-296.4-97.4-486.9,0c-395.9,207.5-1014,838.3-1219.4,1244.8c-33.9,67.8-69.9,122.8-78.3,122.8C3453-653.4,3400.1-672.5,3340.8-695.8z"/></g></g>
</svg>