<?xml version="1.0" encoding="utf-8"?>
<!-- Svg Vector Icons : http://www.onlinewebfonts.com/icon -->
<!DOCTYPE svg PUBLIC "-//W3C//DTD SVG 1.1//EN" "http://www.w3.org/Graphics/SVG/1.1/DTD/svg11.dtd">
<svg version="1.1" xmlns="http://www.w3.org/2000/svg" xmlns:xlink="http://www.w3.org/1999/xlink" x="0px" y="0px" viewBox="0 0 1000 1000" enable-background="new 0 0 1000 1000" xml:space="preserve">
<metadata> Svg Vector Icons : http://www.onlinewebfonts.com/icon </metadata>
<g><g transform="translate(0.000000,511.000000) scale(0.100000,-0.100000)"><path d="M4668.2,4990c-534.6-43.8-856.6-201.6-1012.2-497.3c-37.2-72.3-70.1-103-135.8-124.9c-181.8-63.5-330.8-284.8-398.8-593.7c-26.3-122.7-37.2-271.7-35.1-512.7v-341.8l-107.3-37.2c-124.9-46-203.8-155.6-238.8-344c-63.5-333,140.2-764.6,392.2-832.5c72.3-17.5,92-35.1,100.8-83.3c113.9-574,479.8-1156.8,950.8-1511.7c276.1-208.1,580.6-333,812.8-333c201.6,0,471,100.8,731.7,273.9c462.3,306.7,889.5,928.9,1012.2,1478.9c35.1,151.2,37.2,153.4,122.7,175.3c109.5,30.7,247.6,168.7,313.3,315.5c155.5,341.8,94.2,736.1-131.5,845.7c-50.4,24.1-100.8,43.8-113.9,43.8c-15.3,0-26.3,131.5-35,368.1c-13.2,409.7-57,639.7-168.7,911.4c-57,135.8-96.4,188.4-221.3,306.7c-271.7,258.5-740.5,444.8-1244.4,495.1C5014.3,5016.3,4974.9,5016.3,4668.2,4990z"/><path d="M3312-312c-142.4-85.4-499.5-234.4-944.3-390c-578.4-203.8-847.9-333-1025.3-495.2c-344-313.3-517.1-690.1-652.9-1421.9c-153.4-817.2,0-1163.4,657.3-1481c1546.8-749.3,4250.3-911.4,6268.1-372.5c628.8,166.5,1205,416.3,1421.9,615.6c280.4,256.3,370.2,536.8,311.1,966.2c-124.9,878.5-313.3,1338.6-692.3,1689.2c-166.5,153.4-447,295.8-909.2,455.7c-453.5,155.5-688,247.6-931.1,368.1c-113.9,54.8-214.7,103-223.5,107.3c-8.8,4.4-39.4-41.6-70.1-100.8c-157.7-311.1-620-793.1-1010-1053.8c-262.9-175.3-407.5-230-563.1-216.9C4582.8-1604.6,3787.5-932,3496.1-408.4c-43.8,78.9-87.6,142.4-94.2,142.4C3393.1-266,3353.7-285.7,3312-312z"/></g></g>
</svg>