<?xml version="1.0" encoding="utf-8"?>
<!-- Svg Vector Icons : http://www.onlinewebfonts.com/icon -->
<!DOCTYPE svg PUBLIC "-//W3C//DTD SVG 1.1//EN" "http://www.w3.org/Graphics/SVG/1.1/DTD/svg11.dtd">
<svg version="1.1" xmlns="http://www.w3.org/2000/svg" xmlns:xlink="http://www.w3.org/1999/xlink" x="0px" y="0px" viewBox="0 0 1000 1000" enable-background="new 0 0 1000 1000" xml:space="preserve">
<metadata> Svg Vector Icons : http://www.onlinewebfonts.com/icon </metadata>
<g><g><path d="M500,10C229.8,10,10,229.8,10,500c0,270.2,219.8,490,490,490c270.2,0,490-219.8,490-490C990,229.8,770.2,10,500,10z M366.1,406.9l1-1.1c4-2.9,5.9-7.4,5.2-12.2c-9.9-59.4-3.4-84.1-1.2-90.3c17.3-52.9,71.4-77.4,82-81.7c2.3-0.9,6.4-2.2,10.7-2.8l1.3-0.3l8.7-0.5l0.1,0.5l2-0.2c1.8-0.2,3.5-0.5,5.7-0.9l1.9-0.4c1.7,0,22.8,2.7,54.1,12.3l21.8,7.5c39.8,11.7,58.1,33.6,61.5,38c31.9,36.1,23.3,90.6,15.4,119.9c-0.9,3.5-0.4,7,1.6,10l1.8,2.2c2.3,3.1,4.4,15.2-2.5,41c-1.3,7.8-4.2,14.1-8.5,18.4c-1.6,1.7-2.7,4-3.1,6.4c-10.8,63.1-67.3,133.8-127,133.8c-50.6,0-108.3-65-118.7-133.7c-0.4-2.6-1.5-4.8-3.3-6.8c-4.3-4.5-7.1-10.9-8.8-20.5C362.7,427.4,362.1,412.9,366.1,406.9z M252.5,680.7c2.2-2.8,14.4-17.1,39.2-26.6c21.8-6.7,75.5-24.5,104.9-45.9c1.4-0.8,2.7-2.2,3.9-3.3c2.7-2.9,6.9-7.4,11.8-12l2.7-2.6l2.8,2.6c25.9,24.4,54.5,37.8,80.7,37.8c27.5,0,55.8-11.9,81.9-34.4l2.1-1.8l5.5,2.7c4.9,4.6,13.5,10.8,17.5,12.7l5.1,2.5l-0.5,0.6l2.3,1.4c4.8,2.9,10.1,5.7,16.2,8.8c6.2,2.7,11.4,4.8,16.8,6.5c4.5,1.5,28.7,9.6,56.3,22.3l5.2,1.6c26.9,10.3,38.9,24.6,40.1,26.1c31.9,47.3,44.2,135.7,48.7,184.9C712.3,932.4,607.3,969.7,500,969.7c-107.3,0-212.3-37.3-295.7-105.1C208.8,815.6,220.9,727.5,252.5,680.7z M767.4,666.1l-1.7-2c-8-9.9-25.4-23.9-50.9-33.6l-4-1.2c-25.5-11.7-48.5-19.7-57.3-22.6l-0.7,2l0,0l0.2-2.2c-5.5-1.8-10-3.7-14-5.5c-29-14.2-32.7-22.5-33.3-24.5l-1.4-3.3l1.3-3c21.8-27.2,37.1-58.9,42.9-88.7l0.7-1.8c6.1-7.7,10-16.7,11.5-26.7c6.9-25,7.2-43.4,1-56.2l-0.6-1.3l0.3-1.4c7.7-32.4,15.2-93-22-135.2c-5.9-7.4-28.4-32.6-72.9-45.6L545,206c-36-11.1-58.5-13.5-61.4-13.5l0,0c-2.4,0-4.4,0.2-7.5,0.9l-2.9,0.5c-1.5-0.2-3.1-0.4-4.9-0.4c-11.5,0-23.9,5-24.5,5.2c-12.4,5.2-75.7,34.4-95.7,96.4c-3.3,8.8-10.1,35.6-1.4,94.2l0.3,1.7l-1,1.4c-9,12.1-9.7,31.7-2.2,58.1c1.9,11.7,5.7,21,11.4,28.1l1,2.1c5.5,30.6,19.1,61,39.5,87.6l1.8,2.4l-1.6,2.4c-0.9,1.2-1.5,2.6-1.7,3.6c-5,14.3-61.1,39.3-110.3,54.4c-36,13.6-51.2,35.4-51.2,35.4c-30.5,45.3-44.5,121.4-50.9,178.9C85.4,756.3,30.3,630.8,30.3,500C30.3,241,241,30.3,500,30.3C759,30.3,969.8,241,969.8,500c0,130.8-55.2,256.4-151.6,345.3C811.6,787.4,797.5,710.9,767.4,666.1z"/></g><g></g><g></g><g></g><g></g><g></g><g></g><g></g><g></g><g></g><g></g><g></g><g></g><g></g><g></g><g></g></g>
</svg>